<?xml version="1.0"?>
<svg width="128" height="128" xmlns="http://www.w3.org/2000/svg" xmlns:svg="http://www.w3.org/2000/svg">
 <g class="layer">
  <rect fill="#5fa349" height="124" id="rect1" rx="14" stroke="#212532" stroke-width="4" width="124" x="2" y="2"/>
  <path d="m34.064,44.85873l-28.83717,16.42701l0,6.59667l28.83717,16.6857l0,-7.2434l-22.954,-12.67596l22.954,-12.54662l0,-7.2434z" fill="#030000" id="path1" stroke-width="1.1279"/>
  <path d="m93.856643,44.98808l0,7.50209l22.85756,12.15858l-23.05045,13.064l0,6.33798l29.22296,-15.78028l0,-6.98471l-29.03007,-16.29766z" fill="#000000" id="path2" stroke-width="1.1279"/>
  <g fill="#000000"><g transform="translate(36, 38)"><path d="M0 45.26L0 9.47L25.88 9.47L25.88 13.70L4.74 13.70L4.74 24.66L24.54 24.66L24.54 28.86L4.74 28.86L4.74 41.04L26.71 41.04L26.71 45.26L0 45.26ZM33.06 45.26L33.06 9.47L37.79 9.47L37.79 41.04L55.42 41.04L55.42 45.26L33.06 45.26Z"/></g></g>
 </g>
</svg>