<?xml version="1.0"?>
<svg width="128" height="128" xmlns="http://www.w3.org/2000/svg" xmlns:svg="http://www.w3.org/2000/svg">
 <g class="layer">
  <rect fill="#acff91" height="124" id="rect1" rx="14" stroke="#212532" stroke-width="4" width="124" x="2" y="2"/>
  <path d="m34.064,44.85873l-28.83717,16.42701l0,6.59667l28.83717,16.6857l0,-7.2434l-22.954,-12.67596l22.954,-12.54662l0,-7.2434z" fill="#030000" id="path1" stroke-width="1.1279"/>
  <path d="m93.856643,44.98808l0,7.50209l22.85756,12.15858l-23.05045,13.064l0,6.33798l29.22296,-15.78028l0,-6.98471l-29.03007,-16.29766z" fill="#000000" id="path2" stroke-width="1.1279"/>
  <g fill="#000000"><g transform="translate(55, 35)"><path d="M0 14.53L0 9.47L4.39 9.47L4.39 14.53L0 14.53M0 45.26L0 19.34L4.39 19.34L4.39 45.26L0 45.26ZM12.13 45.26L12.13 22.75L8.25 22.75L8.25 19.34L12.13 19.34L12.13 16.58Q12.13 13.96 12.60 12.70Q13.23 10.99 14.83 9.92Q16.43 8.86 19.31 8.86Q21.17 8.86 23.41 9.30L22.75 13.13Q21.39 12.89 20.17 12.89Q18.16 12.89 17.33 13.75Q16.50 14.60 16.50 16.94L16.50 19.34L21.56 19.34L21.56 22.75L16.50 22.75L16.50 45.26L12.13 45.26Z"/></g></g>
 </g>
</svg>