<?xml version="1.0"?>
<svg width="128" height="128" xmlns="http://www.w3.org/2000/svg" xmlns:svg="http://www.w3.org/2000/svg">

 <g class="layer">
  <title>Layer 1</title>
  <rect fill="#99dda2" height="124" id="rect1" rx="14" stroke="#212532" stroke-width="4" width="124" x="2" y="2"/>
  <path d="m34.064,44.85873l-28.83717,16.42701l0,6.59667l28.83717,16.6857l0,-7.2434l-22.954,-12.67596l22.954,-12.54662l0,-7.2434z" fill="#030000" id="path1" stroke-width="1.1279"/>
  <g fill="#000000"><g transform="translate(35, 35)"><path d="M9.33 36.45Q9.30 35.57 9.30 35.13Q9.30 32.54 10.03 30.66Q10.57 29.25 11.77 27.81Q12.65 26.76 14.93 24.74Q17.21 22.73 17.90 21.53Q18.58 20.34 18.58 18.92Q18.58 16.36 16.58 14.42Q14.58 12.48 11.67 12.48Q8.86 12.48 6.98 14.23Q5.10 15.99 4.52 19.73L0 19.19Q0.61 14.18 3.63 11.52Q6.64 8.86 11.60 8.86Q16.85 8.86 19.97 11.72Q23.10 14.58 23.10 18.63Q23.10 20.97 22.00 22.95Q20.90 24.93 17.70 27.76Q15.55 29.66 14.89 30.57Q14.23 31.47 13.92 32.64Q13.60 33.81 13.55 36.45L9.33 36.45M9.06 45.26L9.06 40.26L14.06 40.26L14.06 45.26L9.06 45.26ZM37.13 36.45Q37.11 35.57 37.11 35.13Q37.11 32.54 37.84 30.66Q38.38 29.25 39.58 27.81Q40.45 26.76 42.74 24.74Q45.02 22.73 45.70 21.53Q46.39 20.34 46.39 18.92Q46.39 16.36 44.38 14.42Q42.38 12.48 39.48 12.48Q36.67 12.48 34.79 14.23Q32.91 15.99 32.32 19.73L27.81 19.19Q28.42 14.18 31.43 11.52Q34.45 8.86 39.40 8.86Q44.65 8.86 47.78 11.72Q50.90 14.58 50.90 18.63Q50.90 20.97 49.80 22.95Q48.71 24.93 45.51 27.76Q43.36 29.66 42.70 30.57Q42.04 31.47 41.72 32.64Q41.41 33.81 41.36 36.45L37.13 36.45M36.87 45.26L36.87 40.26L41.87 40.26L41.87 45.26L36.87 45.26ZM64.94 36.45Q64.92 35.57 64.92 35.13Q64.92 32.54 65.65 30.66Q66.19 29.25 67.38 27.81Q68.26 26.76 70.54 24.74Q72.83 22.73 73.51 21.53Q74.19 20.34 74.19 18.92Q74.19 16.36 72.19 14.42Q70.19 12.48 67.29 12.48Q64.48 12.48 62.60 14.23Q60.72 15.99 60.13 19.73L55.62 19.19Q56.23 14.18 59.24 11.52Q62.26 8.86 67.21 8.86Q72.46 8.86 75.59 11.72Q78.71 14.58 78.71 18.63Q78.71 20.97 77.61 22.95Q76.51 24.93 73.32 27.76Q71.17 29.66 70.51 30.57Q69.85 31.47 69.53 32.64Q69.21 33.81 69.17 36.45L64.94 36.45M64.67 45.26L64.67 40.26L69.68 40.26L69.68 45.26L64.67 45.26Z"/></g></g>
 </g>
</svg>