<?xml version="1.0"?>
<svg width="128" height="128" xmlns="http://www.w3.org/2000/svg" xmlns:svg="http://www.w3.org/2000/svg">
 <g class="layer">
  <rect fill="#2ad6ab" height="124" id="rect1" rx="14" stroke="#212532" stroke-width="4" width="124" x="2" y="2"/>
  <g transform="translate(20, 35)"><path d="M13.87 45.26L0 9.47L5.13 9.47L14.43 35.47Q15.55 38.60 16.31 41.33Q17.14 38.40 18.24 35.47L27.91 9.47L32.74 9.47L18.73 45.26L13.87 45.26ZM29.35 45.26L43.09 9.47L48.19 9.47L62.84 45.26L57.45 45.26L53.27 34.42L38.31 34.42L34.38 45.26L29.35 45.26M39.67 30.57L51.81 30.57L48.07 20.65Q46.36 16.14 45.53 13.23Q44.85 16.67 43.60 20.07L39.67 30.57ZM66.43 45.26L66.43 9.47L71.17 9.47L71.17 41.04L88.79 41.04L88.79 45.26L66.43 45.26Z"/></g>
 </g>
</svg>